<svg width="260" height="270" xmlns="http://www.w3.org/2000/svg" id="sojo_logo">
  <g transform="translate(-126.125,-56.875)">
    <path d="m 253.90625,96.625 -38.34375,66.40625 36.125,36.125 -82.90625,39.65625 33.5,33.5 74.1875,-74.1875 -36.78125,-36.75 40.34375,-40.34375 -26.125,-24.40625 z m 52.03125,2.78125 -17.59375,17.625 14.5625,14.5625 17.71875,-17.5 -14.6875,-14.6875 z m 15.6875,24.71875 -13.59375,13.59375 20.25,21.25 -79.71875,80 36.75,36.75 66.65625,-121.25 L 321.625,124.125 z m -34.8125,7.46875 -28.875,28.875 27.03125,27.3125 L 314,158.75 286.8125,131.59375 z m -3.6875,24.125 9.1875,9.1875 -9.03125,8.6875 -9.03125,-9 8.875,-8.875 z"
	  style="fill:#000000; stroke:#ffffff;stroke-width:32;" />
    <path d="m 280.03284,121.02714 -40.34294,40.34294 36.76459,36.76459 -74.18513,74.18512 -33.50134,-33.50134 82.92883,-39.66473 -36.12152,-36.12152 38.33241,-66.393682 z"
	  style="fill:#ff0000;stroke:#ffd23f;stroke-width:4;" />
    <path d="m 286.8125,131.59375 -28.875,28.875 27.03125,27.3125 L 314,158.75 286.8125,131.59375 z m -3.6875,24.125 9.1875,9.1875 -9.03125,8.6875 -9.03125,-9 8.875,-8.875 z"
	  style="fill:#00c900;stroke:#a0ff40;stroke-width:4;" />
    <path d="m 308.0161,137.71311 13.59841,-13.59841 30.34749,30.3475 -66.63821,121.26592 -36.7506,-36.7506 79.71401,-79.99425 z"
	  style="fill:#ff9600;stroke:#ffd100;stroke-width:4;" />
    <path d="m 302.89533,131.58187 -14.56351,-14.56351 17.61037,-17.610364 14.67132,14.671324 z"
	  style="fill:#54d8ef;stroke:#00a3ba;stroke-width:4;" />
  </g>
</svg>
